<?xml version="1.0" encoding="UTF-8"?>
<svg width="1200pt" height="1200pt" version="1.1" viewBox="0 0 1200 1200" xmlns="http://www.w3.org/2000/svg">
 <path d="m1059.4 637.71v-420l-195 120v135h-75l0.40625-195.61h-90.434v-209.4h-239.97v342.72h-120v-117.72l-97.5-60-97.5 60v210h-75v645h210c0-15 30-60 75-75 12.828-4.2617 120-15 150-30 17.941-8.9766 68.891-39.816 74.449-43.199v-15.492c0-128.75-149.45-160.92-149.45-160.92 87.551 64.379 90 128.75 90 128.75-193.14 0-195-193.13-195-193.13 137.46 0 231.45 41.207 261.53 91.895v-32.293c0-82.523 0-233.36 233.36-233.36 0 0 43.234 241.4-149.89 241.4 0 0-19.105-80.484 61.379-160.92 0 0-112.67 32.16-112.67 177.02v151.33c23.508-3.2383 88.008 12.84 111.27 48.887 30.012 46.5 90.012 46.5 120.01 45.023 44.941-2.2305 87.492 60 87.492 60h212.51v-510l-89.988 0.011719z"/>
</svg>
